<?xml version="1.0" encoding="utf-8"?>
<!-- Generator: Adobe Illustrator 16.0.0, SVG Export Plug-In . SVG Version: 6.00 Build 0)  -->
<!DOCTYPE svg PUBLIC "-//W3C//DTD SVG 1.1//EN" "http://www.w3.org/Graphics/SVG/1.1/DTD/svg11.dtd">
<svg version="1.1" id="图层_1" xmlns="http://www.w3.org/2000/svg" xmlns:xlink="http://www.w3.org/1999/xlink" x="0px" y="0px"
	 width="200px" height="200px" viewBox="0 0 200 200" enable-background="new 0 0 200 200" xml:space="preserve">
<path fill="#2E0C08" d="M190.516,71.676h-11.348c-1.719-6.855-7.949-11.953-15.332-11.953h-7.871c-2.129,0-3.848,1.719-3.848,3.848
	s1.719,3.848,3.848,3.848h7.871c4.473,0,8.125,3.633,8.125,8.105s-3.652,8.105-8.125,8.105h-20.508
	c-4.336,0-7.891-3.398-8.105-7.676l1.113-4.512c0.117-0.176,0.215-0.371,0.313-0.547c0.273-0.391,0.586-0.762,0.918-1.113
	c1.543-1.523,3.574-2.383,5.742-2.383c2.129,0,3.848-1.719,3.848-3.848s-1.719-3.848-3.848-3.848c-1.68,0-3.34,0.273-4.902,0.762
	c-0.078-0.488-0.195-0.977-0.332-1.465l-5.41-19.746c-1.875-6.836-8.145-11.621-15.254-11.621c-1.406,0-2.813,0.195-4.18,0.566
	c-4.082,1.113-7.461,3.75-9.57,7.402c-2.09,3.672-2.637,7.91-1.523,11.992l5.449,19.785c0.781,2.813,2.285,5.313,4.355,7.285
	c-3.047,2.188-5.176,5.352-6.094,9.023c-0.02,0.039-0.02,0.098-0.039,0.137l-2.656,12.734c-1.934-0.859-4.082-1.328-6.328-1.328
	H76.336c-2.363,0-4.629,0.508-6.699,1.484c-0.293-1.992-0.996-3.984-2.109-5.82l-10.625-17.52c-1.094-1.816-3.457-2.402-5.293-1.289
	c-0.176,0.117-0.352,0.234-0.508,0.371c-1.406,1.191-1.797,3.281-0.801,4.902l10.625,17.52c2.324,3.828,1.094,8.809-2.734,11.133
	c-1.855,1.113-4.043,1.445-6.152,0.938s-3.887-1.816-5-3.672l-6.816-11.25l-3.789-6.27c-1.133-1.855-1.465-4.023-0.938-6.133
	s1.816-3.867,3.672-5c1.27-0.762,2.715-1.172,4.199-1.172c1.914,0,3.496-1.406,3.789-3.223c0.039-0.195,0.059-0.41,0.059-0.605
	c0-2.129-1.719-3.848-3.848-3.848c-1.621,0-3.223,0.254-4.746,0.742L26.922,48.59c-1.152-1.777-3.535-2.285-5.332-1.113
	c-1.777,1.152-2.285,3.535-1.113,5.313l11.582,17.715c-1.953,1.992-3.359,4.473-4.043,7.266c-1.016,4.102-0.352,8.34,1.836,11.934
	l3.789,6.27l6.816,11.25c1.328,2.207,3.145,4.004,5.273,5.293c-1.387,1.152-2.598,2.559-3.555,4.219l-14.395,24.727
	c-2.109,3.652-2.676,7.91-1.582,11.973c1.094,4.082,3.711,7.48,7.363,9.59c2.402,1.387,5.137,2.109,7.891,2.109
	c5.645,0,10.898-3.027,13.711-7.891l14.395-24.727c1.172-2.012,1.855-4.219,2.07-6.465c1.484,0.469,3.066,0.703,4.688,0.703h20.508
	c1.406,0,2.793-0.195,4.102-0.547c0.215,2.188,0.918,4.336,2.051,6.289l14.395,24.746c2.813,4.863,8.066,7.891,13.711,7.891
	c2.754,0,5.488-0.723,7.891-2.109c7.559-4.355,10.156-14.023,5.781-21.563l-14.395-24.727c-0.781-1.348-1.738-2.539-2.813-3.555
	c3.066-2.109,5.391-5.313,6.348-9.199c0.02-0.039,0.02-0.098,0.039-0.137l2.656-12.734c0.098-0.41,0.176-0.82,0.234-1.23
	c1.973,0.898,4.18,1.387,6.484,1.387h20.508c7.402,0,13.613-5.098,15.332-11.953h11.348c2.129,0,3.848-1.719,3.848-3.848
	C194.363,73.395,192.625,71.676,190.516,71.676z"/>
<path fill="#BCE5E5" d="M43.367,73.434c-1.465,0-2.93,0.41-4.199,1.172c-1.855,1.113-3.164,2.891-3.672,5s-0.176,4.277,0.938,6.133
	l3.789,6.27l6.816,11.25c1.113,1.855,2.891,3.164,5,3.672s4.297,0.176,6.152-0.938c3.828-2.305,5.059-7.305,2.734-11.133
	L50.301,77.34c-0.996-1.641-0.605-3.711,0.801-4.902c-1.172-0.996-2.52-1.738-3.965-2.227
	C46.863,72.027,45.281,73.434,43.367,73.434z"/>
<path fill="#BCE5E5" d="M143.328,67.418c-2.168,0-4.219,0.84-5.742,2.383c-0.352,0.352-0.645,0.723-0.918,1.113
	c-0.098,0.176-0.215,0.371-0.313,0.547l-1.113,4.512c0.215,4.277,3.77,7.676,8.105,7.676h20.508c4.473,0,8.125-3.633,8.125-8.105
	s-3.652-8.105-8.125-8.105h-7.871c-2.129,0-3.848-1.719-3.848-3.848h-4.961C147.176,65.699,145.438,67.418,143.328,67.418
	L143.328,67.418z M110.379,39.449c1.074-1.875,2.813-3.223,4.902-3.809c0.703-0.195,1.426-0.293,2.148-0.293
	c3.652,0,6.855,2.461,7.832,5.957l5.41,19.746c0.547,1.973,0.313,4.043-0.625,5.859c-0.195,0.293-0.371,0.586-0.547,0.898
	c-1.074,1.563-2.676,2.695-4.531,3.203c-2.09,0.566-4.277,0.293-6.172-0.781c-1.875-1.074-3.242-2.813-3.809-4.902l-5.41-19.746
	C109.031,43.512,109.305,41.324,110.379,39.449L110.379,39.449z M68.211,110.992c0-2.168,0.84-4.199,2.383-5.723
	s3.574-2.383,5.742-2.383h20.508c4.473,0,8.125,3.633,8.125,8.105s-3.652,8.105-8.125,8.105H76.336
	C71.844,119.098,68.211,115.465,68.211,110.992z M41.473,157.457c-1.406,0-2.813-0.371-4.043-1.094
	c-1.875-1.074-3.223-2.832-3.789-4.922s-0.273-4.277,0.801-6.133l14.395-24.727c1.504-2.598,4.238-4.043,7.051-4.043
	c1.387,0,2.773,0.352,4.043,1.094c1.875,1.074,3.223,2.832,3.789,4.922s0.273,4.277-0.801,6.133l-14.395,24.727
	C47.078,155.914,44.383,157.457,41.473,157.457z M138.094,145.309c2.246,3.867,0.898,8.848-2.969,11.074
	c-1.23,0.703-2.637,1.094-4.043,1.094c-2.91,0-5.605-1.563-7.051-4.063l-14.395-24.727c-1.094-1.875-1.367-4.063-0.82-6.152
	c0.566-2.09,1.914-3.828,3.789-4.922c3.887-2.227,8.848-0.898,11.094,2.969L138.094,145.309z M129.109,89.371
	c-0.02,0.039-0.02,0.098-0.039,0.137l-2.656,12.715c-1.094,4.297-5.488,6.934-9.805,5.879c-3.652-0.898-6.191-4.121-6.191-7.871
	c0-0.645,0.078-1.309,0.234-1.953c0.02-0.039,0.02-0.078,0.039-0.137l2.656-12.715c0.527-2.07,1.836-3.828,3.672-4.941
	c1.855-1.113,4.043-1.445,6.133-0.938c2.109,0.508,3.887,1.816,5,3.672C129.285,85.094,129.617,87.281,129.109,89.371z"/>
</svg>
